<svg width="173" height="10" viewBox="0 0 173 10" fill="none" xmlns="http://www.w3.org/2000/svg">
<path d="M9.096 0.599999C9.184 0.599999 9.26 0.631999 9.324 0.696C9.388 0.76 9.42 0.836 9.42 0.924V8.676C9.42 8.764 9.388 8.84 9.324 8.904C9.26 8.968 9.184 9 9.096 9H6.624C6.536 9 6.46 8.968 6.396 8.904C6.332 8.84 6.3 8.764 6.3 8.676V6.12H3.9V8.676C3.9 8.764 3.868 8.84 3.804 8.904C3.74 8.968 3.664 9 3.576 9H1.104C1.016 9 0.94 8.972 0.876 8.916C0.812 8.852 0.78 8.772 0.78 8.676V0.924C0.78 0.836 0.812 0.76 0.876 0.696C0.94 0.631999 1.016 0.599999 1.104 0.599999H3.576C3.664 0.599999 3.74 0.631999 3.804 0.696C3.868 0.76 3.9 0.836 3.9 0.924V3.384H6.3V0.924C6.3 0.836 6.332 0.76 6.396 0.696C6.46 0.631999 6.536 0.599999 6.624 0.599999H9.096ZM13.5673 8.592C13.4633 8.864 13.2833 9 13.0273 9H10.7593C10.6873 9 10.6233 8.976 10.5673 8.928C10.5193 8.872 10.4953 8.808 10.4953 8.736L10.5073 8.664L13.1233 0.995999C13.1553 0.892 13.2153 0.8 13.3033 0.719999C13.3913 0.639999 13.5113 0.599999 13.6633 0.599999H16.9993C17.1513 0.599999 17.2713 0.639999 17.3593 0.719999C17.4473 0.8 17.5073 0.892 17.5393 0.995999L20.1553 8.664L20.1673 8.736C20.1673 8.808 20.1393 8.872 20.0833 8.928C20.0353 8.976 19.9753 9 19.9033 9H17.6353C17.3793 9 17.1993 8.864 17.0953 8.592L16.7953 7.752H13.8673L13.5673 8.592ZM15.3313 2.916L14.4793 5.412H16.1833L15.3313 2.916ZM26.7146 0.599999C27.4666 0.599999 28.1226 0.727999 28.6826 0.983999C29.2426 1.24 29.6706 1.588 29.9666 2.028C30.2626 2.468 30.4106 2.96 30.4106 3.504C30.4106 4.4 30.1306 5.104 29.5706 5.616C29.0106 6.12 28.0586 6.372 26.7146 6.372H25.1306V8.676C25.1306 8.764 25.0986 8.84 25.0346 8.904C24.9706 8.968 24.8946 9 24.8066 9H22.2266C22.1386 9 22.0626 8.968 21.9986 8.904C21.9346 8.84 21.9026 8.764 21.9026 8.676V0.924C21.9026 0.836 21.9346 0.76 21.9986 0.696C22.0626 0.631999 22.1386 0.599999 22.2266 0.599999H26.7146ZM26.6666 4.152C26.8586 4.152 27.0106 4.096 27.1226 3.984C27.2346 3.864 27.2906 3.708 27.2906 3.516C27.2906 3.316 27.2346 3.152 27.1226 3.024C27.0106 2.896 26.8586 2.832 26.6666 2.832H25.1426V4.152H26.6666ZM36.9099 0.599999C37.6619 0.599999 38.3179 0.727999 38.8779 0.983999C39.4379 1.24 39.8659 1.588 40.1619 2.028C40.4579 2.468 40.6059 2.96 40.6059 3.504C40.6059 4.4 40.3259 5.104 39.7659 5.616C39.2059 6.12 38.2539 6.372 36.9099 6.372H35.3259V8.676C35.3259 8.764 35.2939 8.84 35.2299 8.904C35.1659 8.968 35.0899 9 35.0019 9H32.4219C32.3339 9 32.2579 8.968 32.1939 8.904C32.1299 8.84 32.0979 8.764 32.0979 8.676V0.924C32.0979 0.836 32.1299 0.76 32.1939 0.696C32.2579 0.631999 32.3339 0.599999 32.4219 0.599999H36.9099ZM36.8619 4.152C37.0539 4.152 37.2059 4.096 37.3179 3.984C37.4299 3.864 37.4859 3.708 37.4859 3.516C37.4859 3.316 37.4299 3.152 37.3179 3.024C37.2059 2.896 37.0539 2.832 36.8619 2.832H35.3379V4.152H36.8619ZM50.2733 0.599999C50.3453 0.599999 50.4053 0.628 50.4533 0.684C50.5093 0.732 50.5373 0.788 50.5373 0.852C50.5373 0.9 50.5253 0.947999 50.5013 0.995999L47.4773 6V8.676C47.4773 8.764 47.4453 8.84 47.3813 8.904C47.3173 8.968 47.2413 9 47.1533 9H44.5973C44.5093 9 44.4333 8.968 44.3693 8.904C44.3053 8.84 44.2733 8.764 44.2733 8.676V6L41.2613 0.995999C41.2373 0.947999 41.2253 0.904 41.2253 0.864C41.2253 0.792 41.2493 0.732 41.2973 0.684C41.3533 0.628 41.4173 0.599999 41.4893 0.599999H44.0213C44.2453 0.599999 44.4093 0.691999 44.5133 0.875999L45.8693 3.252L47.2613 0.9C47.3813 0.7 47.5493 0.599999 47.7653 0.599999H50.2733ZM67.1479 3.06C67.6199 3.036 68.1039 3.116 68.5999 3.3C69.1039 3.476 69.5279 3.788 69.8719 4.236C70.2159 4.676 70.3879 5.248 70.3879 5.952C70.3879 6.568 70.2119 7.116 69.8599 7.596C69.5159 8.076 69.0399 8.452 68.4319 8.724C67.8319 8.988 67.1599 9.12 66.4159 9.12C65.6559 9.12 64.9639 9 64.3399 8.76C63.7239 8.512 63.2359 8.16 62.8759 7.704C62.5159 7.24 62.3359 6.696 62.3359 6.072C62.3359 5.264 62.7319 4.364 63.5239 3.372L65.5279 0.84C65.6399 0.68 65.7959 0.599999 65.9959 0.599999H68.4079C68.4799 0.599999 68.5399 0.628 68.5879 0.684C68.6439 0.732 68.6719 0.792 68.6719 0.864C68.6719 0.92 68.6559 0.972 68.6239 1.02L67.1479 3.06ZM67.3879 6C67.3879 5.752 67.2879 5.56 67.0879 5.424C66.8959 5.288 66.6599 5.22 66.3799 5.22C66.0999 5.22 65.8599 5.288 65.6599 5.424C65.4679 5.56 65.3719 5.752 65.3719 6C65.3719 6.248 65.4679 6.44 65.6599 6.576C65.8599 6.712 66.0999 6.78 66.3799 6.78C66.6599 6.78 66.8959 6.712 67.0879 6.576C67.2879 6.44 67.3879 6.248 67.3879 6ZM88.2345 0.924C88.3545 0.707999 88.5265 0.599999 88.7505 0.599999H90.9465C91.0345 0.599999 91.1105 0.631999 91.1745 0.696C91.2385 0.76 91.2705 0.836 91.2705 0.924V8.676C91.2705 8.764 91.2385 8.84 91.1745 8.904C91.1105 8.968 91.0345 9 90.9465 9H88.7745C88.6865 9 88.6105 8.968 88.5465 8.904C88.4825 8.84 88.4505 8.764 88.4505 8.676V4.956L87.5745 6.684C87.5505 6.74 87.4945 6.804 87.4065 6.876C87.3185 6.948 87.2065 6.984 87.0705 6.984H86.2545C86.1185 6.984 86.0065 6.948 85.9185 6.876C85.8305 6.804 85.7745 6.74 85.7505 6.684L84.8745 4.956V8.676C84.8745 8.764 84.8425 8.84 84.7785 8.904C84.7145 8.968 84.6385 9 84.5505 9H82.3785C82.2905 9 82.2145 8.968 82.1505 8.904C82.0865 8.84 82.0545 8.764 82.0545 8.676V0.924C82.0545 0.836 82.0865 0.76 82.1505 0.696C82.2145 0.631999 82.2905 0.599999 82.3785 0.599999H84.5745C84.7985 0.599999 84.9705 0.707999 85.0905 0.924L86.6625 3.804L88.2345 0.924ZM101.322 5.532C101.322 6.756 100.914 7.66 100.098 8.244C99.2898 8.828 98.2098 9.12 96.8578 9.12C95.5058 9.12 94.4218 8.828 93.6058 8.244C92.7978 7.66 92.3938 6.748 92.3938 5.508V4.092C92.3938 3.276 92.5858 2.6 92.9698 2.064C93.3618 1.52 93.8938 1.12 94.5658 0.864C95.2378 0.608 96.0018 0.48 96.8578 0.48C97.7138 0.48 98.4738 0.608 99.1378 0.864C99.8098 1.12 100.342 1.516 100.734 2.052C101.126 2.588 101.322 3.26 101.322 4.068V5.532ZM95.6338 5.76C95.6338 6.088 95.7418 6.34 95.9578 6.516C96.1818 6.692 96.4818 6.78 96.8578 6.78C97.2338 6.78 97.5298 6.692 97.7458 6.516C97.9698 6.332 98.0818 6.076 98.0818 5.748V3.852C98.0818 3.524 97.9698 3.272 97.7458 3.096C97.5298 2.912 97.2338 2.82 96.8578 2.82C96.4818 2.82 96.1818 2.908 95.9578 3.084C95.7418 3.26 95.6338 3.512 95.6338 3.84V5.76ZM110.809 0.599999C110.897 0.599999 110.973 0.631999 111.037 0.696C111.101 0.76 111.133 0.836 111.133 0.924V8.676C111.133 8.764 111.101 8.84 111.037 8.904C110.973 8.968 110.897 9 110.809 9H108.877C108.685 9 108.525 8.916 108.397 8.748L105.781 5.412V8.676C105.781 8.764 105.749 8.84 105.685 8.904C105.621 8.968 105.545 9 105.457 9H103.225C103.137 9 103.061 8.968 102.997 8.904C102.933 8.84 102.901 8.764 102.901 8.676V0.924C102.901 0.836 102.933 0.76 102.997 0.696C103.061 0.631999 103.137 0.599999 103.225 0.599999H105.169C105.361 0.599999 105.517 0.68 105.637 0.84L108.253 4.452V0.924C108.253 0.836 108.285 0.76 108.349 0.696C108.413 0.631999 108.489 0.599999 108.577 0.599999H110.809ZM121.388 0.599999C121.476 0.599999 121.552 0.631999 121.616 0.696C121.68 0.76 121.712 0.836 121.712 0.924V2.856C121.712 2.944 121.68 3.02 121.616 3.084C121.552 3.148 121.476 3.18 121.388 3.18H118.808V8.676C118.808 8.764 118.776 8.84 118.712 8.904C118.648 8.968 118.572 9 118.484 9H116.012C115.924 9 115.848 8.968 115.784 8.904C115.72 8.84 115.688 8.764 115.688 8.676V3.18H113.108C113.02 3.18 112.944 3.148 112.88 3.084C112.816 3.02 112.784 2.944 112.784 2.856V0.924C112.784 0.836 112.816 0.76 112.88 0.696C112.944 0.631999 113.02 0.599999 113.108 0.599999H121.388ZM131.44 0.599999C131.528 0.599999 131.604 0.631999 131.668 0.696C131.732 0.76 131.764 0.836 131.764 0.924V8.676C131.764 8.764 131.732 8.84 131.668 8.904C131.604 8.968 131.528 9 131.44 9H128.968C128.88 9 128.804 8.968 128.74 8.904C128.676 8.84 128.644 8.764 128.644 8.676V6.12H126.244V8.676C126.244 8.764 126.212 8.84 126.148 8.904C126.084 8.968 126.008 9 125.92 9H123.448C123.36 9 123.284 8.972 123.22 8.916C123.156 8.852 123.124 8.772 123.124 8.676V0.924C123.124 0.836 123.156 0.76 123.22 0.696C123.284 0.631999 123.36 0.599999 123.448 0.599999H125.92C126.008 0.599999 126.084 0.631999 126.148 0.696C126.212 0.76 126.244 0.836 126.244 0.924V3.384H128.644V0.924C128.644 0.836 128.676 0.76 128.74 0.696C128.804 0.631999 128.88 0.599999 128.968 0.599999H131.44ZM138.299 3.648C139.179 3.744 139.883 3.9 140.411 4.116C140.947 4.332 141.335 4.616 141.575 4.968C141.815 5.32 141.935 5.76 141.935 6.288C141.935 6.864 141.747 7.368 141.371 7.8C141.003 8.224 140.491 8.552 139.835 8.784C139.179 9.008 138.431 9.12 137.591 9.12C136.655 9.12 135.863 9.004 135.215 8.772C134.567 8.54 134.083 8.232 133.763 7.848C133.443 7.456 133.283 7.028 133.283 6.564C133.283 6.484 133.307 6.42 133.355 6.372C133.411 6.324 133.479 6.3 133.559 6.3H136.019C136.187 6.3 136.323 6.352 136.427 6.456C136.563 6.584 136.715 6.672 136.883 6.72C137.051 6.76 137.287 6.78 137.591 6.78C138.351 6.78 138.731 6.664 138.731 6.432C138.731 6.336 138.679 6.256 138.575 6.192C138.479 6.12 138.303 6.06 138.047 6.012C137.799 5.956 137.431 5.9 136.943 5.844C135.847 5.716 135.007 5.444 134.423 5.028C133.839 4.604 133.547 4.008 133.547 3.24C133.547 2.696 133.711 2.216 134.039 1.8C134.367 1.384 134.831 1.06 135.431 0.827999C136.039 0.595999 136.743 0.48 137.543 0.48C138.375 0.48 139.103 0.612 139.727 0.875999C140.351 1.132 140.827 1.452 141.155 1.836C141.483 2.22 141.647 2.596 141.647 2.964C141.647 3.044 141.619 3.108 141.563 3.156C141.515 3.204 141.447 3.228 141.359 3.228H138.779C138.643 3.228 138.519 3.18 138.407 3.084C138.319 3.004 138.215 2.94 138.095 2.892C137.975 2.844 137.791 2.82 137.543 2.82C137.007 2.82 136.739 2.932 136.739 3.156C136.739 3.276 136.843 3.372 137.051 3.444C137.259 3.508 137.675 3.576 138.299 3.648ZM159.242 2.112C159.33 2.112 159.406 2.144 159.47 2.208C159.534 2.272 159.566 2.348 159.566 2.436V4.584C159.566 4.672 159.534 4.748 159.47 4.812C159.406 4.876 159.33 4.908 159.242 4.908H156.806C156.718 4.908 156.642 4.876 156.578 4.812C156.514 4.748 156.482 4.672 156.482 4.584V2.436C156.482 2.348 156.514 2.272 156.578 2.208C156.642 2.144 156.718 2.112 156.806 2.112H159.242ZM159.242 6.204C159.33 6.204 159.406 6.236 159.47 6.3C159.534 6.364 159.566 6.44 159.566 6.528V8.676C159.566 8.764 159.534 8.84 159.47 8.904C159.406 8.968 159.33 9 159.242 9H156.806C156.718 9 156.642 8.968 156.578 8.904C156.514 8.84 156.482 8.764 156.482 8.676V6.528C156.482 6.44 156.514 6.364 156.578 6.3C156.642 6.236 156.718 6.204 156.806 6.204H159.242ZM168.189 0.599999C169.541 0.599999 170.621 0.891999 171.429 1.476C172.245 2.06 172.653 2.964 172.653 4.188V5.412C172.653 6.66 172.249 7.572 171.441 8.148C170.641 8.716 169.557 9 168.189 9H164.361C164.273 9 164.197 8.968 164.133 8.904C164.069 8.84 164.037 8.764 164.037 8.676V0.924C164.037 0.836 164.069 0.76 164.133 0.696C164.197 0.631999 164.273 0.599999 164.361 0.599999H168.189ZM168.249 6.66C168.625 6.66 168.921 6.572 169.137 6.396C169.361 6.212 169.473 5.956 169.473 5.628V3.972C169.473 3.644 169.361 3.392 169.137 3.216C168.921 3.032 168.625 2.94 168.249 2.94H167.157V6.66H168.249Z" fill="black"/>
</svg>
